# Blender 5.0.1
# www.blender.org
mtllib cube.mtl
o Plane
v -7.500000 -10.000000 32.500000
v 7.500000 -10.000000 32.500000
v -7.500000 -10.000000 -32.500000
v 7.500000 -10.000000 -32.500000
v -15.000000 -3.000000 -40.000000
v -15.000000 -3.000000 40.000000
v 15.000000 -3.000000 40.000000
v 15.000000 -3.000000 -40.000000
v -15.000000 17.000000 -40.000000
v -15.000000 17.000000 40.000000
v 15.000000 17.000000 40.000000
v 15.000000 17.000000 -40.000000
vn -0.0000 1.0000 -0.0000
vn -0.0000 -0.0000 1.0000
vn -0.0000 0.7311 0.6823
vn -0.0000 0.7311 -0.6823
vn -0.6823 0.7311 -0.0000
vn 0.6823 0.7311 -0.0000
vn -0.0000 -1.0000 -0.0000
vn -0.0000 -0.0000 -1.0000
vn -1.0000 -0.0000 -0.0000
vn 1.0000 -0.0000 -0.0000
vt 0.000000 0.000000
vt 1.000000 0.000000
vt 1.000000 1.000000
vt 0.000000 1.000000
s 0
f 1/1/1 2/2/1 4/3/1 3/4/1
f 8/3/2 12/3/2 9/4/2 5/4/2
f 4/3/3 8/3/3 5/4/3 3/4/3
f 1/1/4 6/1/4 7/2/4 2/2/4
f 2/2/5 7/2/5 8/3/5 4/3/5
f 3/4/6 5/4/6 6/1/6 1/1/6
f 10/1/7 9/4/7 12/3/7 11/2/7
f 6/1/8 10/1/8 11/2/8 7/2/8
f 7/2/9 11/2/9 12/3/9 8/3/9
f 5/4/10 9/4/10 10/1/10 6/1/10
